<?xml version="1.0" standalone="no"?><!DOCTYPE svg PUBLIC "-//W3C//DTD SVG 1.1//EN" "http://www.w3.org/Graphics/SVG/1.1/DTD/svg11.dtd"><svg t="1646486400889" class="icon" viewBox="0 0 1024 1024" version="1.1" xmlns="http://www.w3.org/2000/svg" p-id="6724" xmlns:xlink="http://www.w3.org/1999/xlink" width="200" height="200"><defs><style type="text/css"></style></defs><path d="M457.27 490.09H170.95c-19.29 0-34.98-15.69-34.98-34.98V168.8c0-19.29 15.69-34.98 34.98-34.98h286.32c19.29 0 34.98 15.69 34.98 34.98v286.32c-0.01 19.28-15.7 34.97-34.98 34.97z m-281.94-39.36h277.55V173.18H175.33v277.55zM457.27 890.18H170.95c-19.29 0-34.98-15.69-34.98-34.98V568.88c0-19.29 15.69-34.98 34.98-34.98h286.32c19.29 0 34.98 15.69 34.98 34.98V855.2c-0.01 19.29-15.7 34.98-34.98 34.98z m-281.94-39.36h277.55V573.27H175.33v277.55zM853.05 490.09H566.73c-19.29 0-34.98-15.69-34.98-34.98V168.8c0-19.29 15.69-34.98 34.98-34.98h286.32c19.29 0 34.98 15.69 34.98 34.98v286.32c0 19.28-15.69 34.97-34.98 34.97z m-281.94-39.36h277.55V173.18H571.11v277.55zM853.05 890.18h-37.18c-10.87 0-19.68-8.81-19.68-19.68s8.81-19.68 19.68-19.68h32.8V573.27H571.11v277.55h70.92c10.87 0 19.68 8.81 19.68 19.68s-8.81 19.68-19.68 19.68h-75.3c-19.29 0-34.98-15.69-34.98-34.98V568.88c0-19.29 15.69-34.98 34.98-34.98h286.32c19.29 0 34.98 15.69 34.98 34.98V855.2c0 19.29-15.69 34.98-34.98 34.98z" fill="#d81e06" p-id="6725"></path><path d="M752.73 890.18h-48.38c-10.87 0-19.68-8.81-19.68-19.68s8.81-19.68 19.68-19.68h48.38c10.87 0 19.68 8.81 19.68 19.68s-8.81 19.68-19.68 19.68z" fill="#d81e06" p-id="6726"></path></svg>